<svg width="82" height="83" viewBox="0 0 82 83" fill="none" xmlns="http://www.w3.org/2000/svg">
<g filter="url(#filter0_d_1_320)">
<circle cx="40" cy="40" r="40" fill="#99C43C"/>
<circle cx="40" cy="40" r="38" stroke="white" stroke-width="4"/>
</g>
<path d="M27.3139 32.78C27.3539 32.78 27.3739 32.7667 27.3739 32.74C27.3472 32.5 27.3339 32.2133 27.3339 31.88C27.3472 31.5467 27.3606 31.22 27.3739 30.9C27.3872 30.5667 27.3872 30.2667 27.3739 30C27.3739 29.7333 27.3539 29.5533 27.3139 29.46C27.1672 29.4733 26.9872 29.4867 26.7739 29.5C26.5606 29.5133 26.3406 29.52 26.1139 29.52C25.8872 29.52 25.6539 29.52 25.4139 29.52C25.1872 29.5067 24.9806 29.4867 24.7939 29.46C24.7806 29.46 24.7672 29.4533 24.7539 29.44C24.6339 29.2267 24.5606 28.96 24.5339 28.64C24.5072 28.32 24.5672 27.9867 24.7139 27.64C25.1272 27.6 25.5672 27.5667 26.0339 27.54C26.5139 27.5133 26.9872 27.4933 27.4539 27.48C27.9339 27.4533 28.3939 27.4267 28.8339 27.4C29.2872 27.3733 29.6939 27.3467 30.0539 27.32C30.0672 27.1467 30.0739 26.9333 30.0739 26.68C30.0739 26.4133 30.0739 26.14 30.0739 25.86C30.0739 25.5667 30.0672 25.2867 30.0539 25.02C30.0539 24.7533 30.0539 24.5333 30.0539 24.36C29.6806 24.2667 29.2339 24.1933 28.7139 24.14C28.1939 24.0867 27.6406 24.06 27.0539 24.06C26.4672 24.0467 25.8672 24.0533 25.2539 24.08C24.6539 24.0933 24.0806 24.12 23.5339 24.16C23.0006 24.2 22.5206 24.24 22.0939 24.28C21.6672 24.32 21.3406 24.36 21.1139 24.4V24.42C21.1139 25.46 21.1139 26.4067 21.1139 27.26C21.1139 28.1 21.1072 28.8867 21.0939 29.62C21.0939 30.3533 21.0939 31.0533 21.0939 31.72C21.0939 32.3733 21.0872 33.0267 21.0739 33.68C21.0739 34.3333 21.0739 35.0133 21.0739 35.72C21.0739 36.4133 21.0739 37.16 21.0739 37.96L21.0939 37.98C21.1472 38.0067 21.3072 38.0267 21.5739 38.04C21.8539 38.0533 22.1739 38.06 22.5339 38.06C22.8939 38.06 23.2539 38.0533 23.6139 38.04C23.9872 38.0267 24.3072 38.0067 24.5739 37.98C24.5872 37.22 24.6006 36.4267 24.6139 35.6C24.6272 34.76 24.6672 33.92 24.7339 33.08H24.7539C25.1539 33.0133 25.5739 32.9667 26.0139 32.94C26.4672 32.9 26.9006 32.8467 27.3139 32.78ZM40.4567 37.94C40.2567 37.3933 40.0101 36.8667 39.7167 36.36C39.4234 35.84 39.1167 35.3333 38.7967 34.84C38.4767 34.3467 38.1501 33.86 37.8167 33.38C37.4834 32.8867 37.1767 32.3933 36.8967 31.9V31.88H36.9167H36.9967C37.6367 31.84 38.1634 31.66 38.5767 31.34C39.0034 31.02 39.3434 30.62 39.5967 30.14C40.0101 29.4467 40.2034 28.7333 40.1767 28C40.1634 27.2533 39.9834 26.5733 39.6367 25.96C39.2901 25.3467 38.8034 24.8333 38.1767 24.42C37.5501 24.0067 36.8434 23.78 36.0567 23.74C35.0834 23.6333 34.1501 23.6267 33.2567 23.72C32.3634 23.8133 31.5434 23.9133 30.7967 24.02C30.8234 24.1933 30.8434 24.5267 30.8567 25.02C30.8834 25.5 30.9034 26.0867 30.9167 26.78C30.9301 27.46 30.9434 28.2133 30.9567 29.04C30.9834 29.8533 30.9967 30.68 30.9967 31.52C31.0101 32.3467 31.0167 33.1533 31.0167 33.94C31.0167 34.7133 31.0167 35.4 31.0167 36C31.0167 36.6 31.0101 37.0867 30.9967 37.46C30.9834 37.82 30.9634 38 30.9367 38C31.0034 37.9867 31.1767 37.9867 31.4567 38C31.7501 38.0133 32.0767 38.0133 32.4367 38C32.7967 38 33.1567 37.9867 33.5167 37.96C33.8901 37.9333 34.1901 37.8733 34.4167 37.78C34.4034 37.5267 34.3834 37.1867 34.3567 36.76C34.3301 36.3333 34.3034 35.8867 34.2767 35.42C34.2634 34.94 34.2567 34.48 34.2567 34.04C34.2567 33.5867 34.2767 33.2067 34.3167 32.9L34.3567 32.96C34.6367 33.3067 34.9167 33.7067 35.1967 34.16C35.4767 34.6133 35.7367 35.0733 35.9767 35.54C36.2167 36.0067 36.4367 36.4533 36.6367 36.88C36.8367 37.3067 37.0034 37.6733 37.1367 37.98H37.1567C37.7567 38.02 38.3434 38.0267 38.9167 38C39.4901 37.96 40.0101 37.94 40.4767 37.94H40.4567ZM33.7167 26.82C34.1834 26.6333 34.6434 26.5333 35.0967 26.52C35.5501 26.4933 35.9234 26.6133 36.2167 26.88C36.4034 27.0267 36.5367 27.2267 36.6167 27.48C36.6967 27.72 36.7234 27.9667 36.6967 28.22C36.6701 28.46 36.5834 28.6867 36.4367 28.9C36.3034 29.1 36.1101 29.2267 35.8567 29.28C35.5367 29.3333 35.1967 29.3533 34.8367 29.34C34.4767 29.3267 34.1434 29.3067 33.8367 29.28H33.8167C33.7901 29.1333 33.7701 28.9533 33.7567 28.74C33.7567 28.5267 33.7567 28.3067 33.7567 28.08C33.7567 27.8533 33.7501 27.6333 33.7367 27.42C33.7367 27.1933 33.7301 26.9933 33.7167 26.82ZM49.7483 35.28C48.8416 35.3067 47.9616 35.3 47.1083 35.26C46.2549 35.2067 45.3883 35.18 44.5083 35.18L44.4883 35.16C44.4616 34.84 44.4349 34.44 44.4083 33.96C44.3949 33.48 44.4216 33.0467 44.4883 32.66C44.5549 32.6067 44.6816 32.5733 44.8683 32.56C45.0549 32.5467 45.2616 32.54 45.4883 32.54C45.7283 32.54 45.9749 32.54 46.2283 32.54C46.4816 32.5267 46.7083 32.4933 46.9083 32.44C46.8949 31.9467 46.9016 31.4733 46.9283 31.02C46.9549 30.5667 46.9349 30.1133 46.8683 29.66V29.64C46.4549 29.6267 46.0416 29.62 45.6283 29.62C45.2149 29.62 44.8083 29.6067 44.4083 29.58L44.3883 29.56C44.2949 29.2 44.2683 28.82 44.3083 28.42C44.3616 28.0067 44.3816 27.6067 44.3683 27.22L44.3883 27.2H44.4483C44.8883 27.16 45.3283 27.14 45.7683 27.14C46.2083 27.14 46.6483 27.1467 47.0883 27.16C47.5283 27.16 47.9616 27.1533 48.3883 27.14C48.8283 27.1133 49.2616 27.0533 49.6883 26.96V26.94C49.6883 26.4733 49.7016 26 49.7283 25.52C49.7683 25.04 49.7549 24.5667 49.6883 24.1C49.6883 24.0867 49.5549 24.0733 49.2883 24.06C49.0216 24.0467 48.6683 24.04 48.2283 24.04C47.7883 24.04 47.2816 24.0467 46.7083 24.06C46.1349 24.0733 45.5416 24.0867 44.9283 24.1C44.3149 24.1133 43.7016 24.1333 43.0883 24.16C42.4883 24.1733 41.9283 24.1933 41.4083 24.22C41.3416 25.3667 41.3016 26.5067 41.2883 27.64C41.2749 28.7733 41.2749 29.9067 41.2883 31.04C41.3016 32.1733 41.3216 33.3133 41.3483 34.46C41.3749 35.5933 41.3883 36.74 41.3883 37.9C42.6816 38.0067 44.0283 38.04 45.4283 38C46.8416 37.9467 48.2283 37.9267 49.5883 37.94C49.6949 37.54 49.7549 37.1133 49.7683 36.66C49.7816 36.1933 49.7749 35.7467 49.7483 35.32V35.28ZM59.3772 35.28C58.4705 35.3067 57.5905 35.3 56.7372 35.26C55.8839 35.2067 55.0172 35.18 54.1372 35.18L54.1172 35.16C54.0905 34.84 54.0639 34.44 54.0372 33.96C54.0239 33.48 54.0505 33.0467 54.1172 32.66C54.1839 32.6067 54.3105 32.5733 54.4972 32.56C54.6839 32.5467 54.8905 32.54 55.1172 32.54C55.3572 32.54 55.6039 32.54 55.8572 32.54C56.1105 32.5267 56.3372 32.4933 56.5372 32.44C56.5239 31.9467 56.5305 31.4733 56.5572 31.02C56.5839 30.5667 56.5639 30.1133 56.4972 29.66V29.64C56.0839 29.6267 55.6705 29.62 55.2572 29.62C54.8439 29.62 54.4372 29.6067 54.0372 29.58L54.0172 29.56C53.9239 29.2 53.8972 28.82 53.9372 28.42C53.9905 28.0067 54.0105 27.6067 53.9972 27.22L54.0172 27.2H54.0772C54.5172 27.16 54.9572 27.14 55.3972 27.14C55.8372 27.14 56.2772 27.1467 56.7172 27.16C57.1572 27.16 57.5905 27.1533 58.0172 27.14C58.4572 27.1133 58.8905 27.0533 59.3172 26.96V26.94C59.3172 26.4733 59.3305 26 59.3572 25.52C59.3972 25.04 59.3839 24.5667 59.3172 24.1C59.3172 24.0867 59.1839 24.0733 58.9172 24.06C58.6505 24.0467 58.2972 24.04 57.8572 24.04C57.4172 24.04 56.9105 24.0467 56.3372 24.06C55.7639 24.0733 55.1705 24.0867 54.5572 24.1C53.9439 24.1133 53.3305 24.1333 52.7172 24.16C52.1172 24.1733 51.5572 24.1933 51.0372 24.22C50.9705 25.3667 50.9305 26.5067 50.9172 27.64C50.9039 28.7733 50.9039 29.9067 50.9172 31.04C50.9305 32.1733 50.9505 33.3133 50.9772 34.46C51.0039 35.5933 51.0172 36.74 51.0172 37.9C52.3105 38.0067 53.6572 38.04 55.0572 38C56.4705 37.9467 57.8572 37.9267 59.2172 37.94C59.3239 37.54 59.3839 37.1133 59.3972 36.66C59.4105 36.1933 59.4039 35.7467 59.3772 35.32V35.28Z" fill="white"/>
<path d="M14.9642 48.312C15.0042 48.088 15.0242 47.9 15.0242 47.748C15.0242 47.324 14.9242 46.96 14.7242 46.656C14.5322 46.344 14.2682 46.104 13.9322 45.936C13.4522 45.72 12.9282 45.612 12.3602 45.612C11.9442 45.612 11.5802 45.676 11.2682 45.804C10.9082 45.956 10.5962 46.184 10.3322 46.488C10.0762 46.784 9.8922 47.12 9.7802 47.496C9.7082 47.72 9.6722 47.96 9.6722 48.216C9.6722 48.448 9.7082 48.684 9.7802 48.924C9.8842 49.26 10.0802 49.556 10.3682 49.812C10.6562 50.06 11.0042 50.216 11.4122 50.28L11.8682 50.316C12.2682 50.348 12.5802 50.388 12.8042 50.436C13.0362 50.484 13.2362 50.584 13.4042 50.736C13.5802 50.888 13.6842 51.116 13.7162 51.42C13.7402 51.692 13.6962 51.94 13.5842 52.164C13.4722 52.388 13.3082 52.564 13.0922 52.692C12.8762 52.82 12.6362 52.884 12.3722 52.884C12.2442 52.884 12.1202 52.868 12.0002 52.836C11.5842 52.732 11.2722 52.568 11.0642 52.344C10.8642 52.12 10.7682 51.848 10.7762 51.528C10.6162 51.528 10.4922 51.524 10.4042 51.516L9.9602 51.504C9.8642 51.504 9.7282 51.512 9.5522 51.528V51.612C9.5522 51.732 9.5642 51.84 9.5882 51.936V51.948C9.6282 52.388 9.7922 52.768 10.0802 53.088C10.3682 53.408 10.7282 53.652 11.1602 53.82C11.5922 53.98 12.0362 54.06 12.4922 54.06C12.9482 54.06 13.3642 53.96 13.7402 53.76C14.1162 53.552 14.4122 53.244 14.6282 52.836C14.8522 52.428 14.9642 51.936 14.9642 51.36C14.9642 50.752 14.7322 50.252 14.2682 49.86C13.8042 49.468 13.1122 49.256 12.1922 49.224C11.4562 49.2 11.0362 48.884 10.9322 48.276C10.9082 48.012 10.9682 47.772 11.1122 47.556C11.2562 47.34 11.4562 47.172 11.7122 47.052C11.9682 46.924 12.2362 46.86 12.5162 46.86C12.7082 46.86 12.8842 46.888 13.0442 46.944C13.2682 47.024 13.4442 47.156 13.5722 47.34C13.7002 47.516 13.7642 47.736 13.7642 48C13.7642 48.136 13.7562 48.24 13.7402 48.312C13.8762 48.352 14.0562 48.372 14.2802 48.372C14.4882 48.372 14.7122 48.352 14.9522 48.312H14.9642ZM16.7444 46.824C16.7444 45.92 16.7364 45.432 16.7204 45.36C16.7204 45.336 16.6804 45.324 16.6004 45.324C16.5364 45.324 16.4724 45.328 16.4084 45.336C16.3524 45.344 16.3044 45.348 16.2644 45.348C16.1124 45.356 15.9124 45.348 15.6644 45.324C15.6484 46.268 15.6404 47.188 15.6404 48.084L15.6524 51.756C15.6604 52.356 15.6644 53.116 15.6644 54.036C15.7364 54.028 15.8284 54.024 15.9404 54.024L16.3004 54.036C16.3964 54.036 16.5244 54.016 16.6844 53.976V53.928C16.7004 53.696 16.7084 53.364 16.7084 52.932C16.7084 52.588 16.7004 52.152 16.6844 51.624L16.6724 51.216C16.6724 50.792 16.7004 50.428 16.7564 50.124C16.8204 49.796 16.9604 49.556 17.1764 49.404C17.4004 49.244 17.6684 49.164 17.9804 49.164C18.1564 49.164 18.3284 49.188 18.4964 49.236C18.6404 49.268 18.7364 49.3 18.7844 49.332C19.0084 49.484 19.1284 49.816 19.1444 50.328V52.68V53.4C19.1444 53.576 19.1524 53.784 19.1684 54.024C19.5364 54.04 19.8804 54.024 20.2004 53.976C20.1844 53.656 20.1764 53.384 20.1764 53.16C20.1764 52.888 20.1844 52.432 20.2004 51.792C20.2164 51.136 20.2244 50.656 20.2244 50.352C20.2244 49.816 20.2044 49.384 20.1644 49.056C20.1244 48.728 20.0524 48.52 19.9484 48.432C19.6204 48.152 19.1644 48.012 18.5804 48.012C18.4124 48.012 18.2324 48.024 18.0404 48.048C17.7204 48.072 17.4764 48.132 17.3084 48.228C17.1484 48.316 16.9604 48.452 16.7444 48.636V47.568V46.824ZM21.3193 45.36C21.3113 45.544 21.3193 45.9 21.3433 46.428C21.3593 46.7 21.3673 46.896 21.3673 47.016C21.4553 47.008 21.5313 47.008 21.5953 47.016C21.6593 47.016 21.7153 47.016 21.7633 47.016C21.8273 47.024 21.9233 47.028 22.0513 47.028C22.2593 47.028 22.4033 47.008 22.4833 46.968L22.4473 45.384C22.1913 45.384 21.8153 45.376 21.3193 45.36ZM21.3673 47.952C21.3193 48.48 21.2953 49.02 21.2953 49.572C21.2953 49.876 21.3033 50.308 21.3193 50.868V51.876V52.956C21.3193 53.428 21.3153 53.78 21.3073 54.012C21.3393 54.004 21.4273 54 21.5713 54C21.6193 54 21.7553 54 21.9793 54C22.2033 54 22.3713 53.988 22.4833 53.964C22.4513 53.388 22.4353 52.732 22.4353 51.996C22.4353 51.212 22.4473 50.436 22.4713 49.668C22.4873 48.916 22.4953 48.36 22.4953 48V47.964C22.2073 47.964 21.9433 47.956 21.7033 47.94C21.5353 47.932 21.4233 47.932 21.3673 47.94V47.952ZM24.6437 55.8C24.6597 55.544 24.6677 55.328 24.6677 55.152L24.6437 53.688C24.6597 53.784 24.8397 53.864 25.1837 53.928C25.5277 53.992 25.8997 54.024 26.2997 54.024C26.4917 54.024 26.6317 54.02 26.7197 54.012C26.9997 53.988 27.2397 53.936 27.4397 53.856C27.7757 53.736 28.0197 53.452 28.1717 53.004C28.3317 52.556 28.4117 52.028 28.4117 51.42C28.3957 50.74 28.3397 50.168 28.2437 49.704C28.1477 49.24 27.9517 48.856 27.6557 48.552C27.3677 48.248 26.9477 48.076 26.3957 48.036C26.3477 48.028 26.2597 48.024 26.1317 48.024C25.8757 48.024 25.6237 48.064 25.3757 48.144C25.1277 48.224 24.9317 48.356 24.7877 48.54C24.7557 48.596 24.7277 48.628 24.7037 48.636C24.6877 48.636 24.6757 48.616 24.6677 48.576C24.6757 48.504 24.6757 48.448 24.6677 48.408C24.6677 48.368 24.6677 48.332 24.6677 48.3C24.6677 48.236 24.6637 48.176 24.6557 48.12C24.6557 48.056 24.6517 48.02 24.6437 48.012C24.5717 48.004 24.4557 48 24.2957 48L23.5157 48.012C23.5077 48.3 23.5037 48.74 23.5037 49.332C23.5037 49.972 23.5077 50.548 23.5157 51.06C23.5237 51.564 23.5317 51.992 23.5397 52.344C23.5717 53.8 23.5877 54.904 23.5877 55.656V56.448C23.7477 56.472 23.9197 56.484 24.1037 56.484C24.2317 56.484 24.3477 56.476 24.4517 56.46C24.5557 56.452 24.6077 56.44 24.6077 56.424V56.292L24.6437 55.8ZM25.6997 53.1C25.3477 53.1 25.0957 53.06 24.9437 52.98C24.7997 52.9 24.7037 52.74 24.6557 52.5C24.6077 52.252 24.5837 51.844 24.5837 51.276C24.5837 50.74 24.6077 50.324 24.6557 50.028C24.7037 49.732 24.8157 49.496 24.9917 49.32C25.1757 49.136 25.4597 49.028 25.8437 48.996C26.4917 48.948 26.9277 49.156 27.1517 49.62C27.3837 50.084 27.4997 50.636 27.4997 51.276C27.4997 51.548 27.4677 51.84 27.4037 52.152C27.3157 52.448 27.1997 52.664 27.0557 52.8C26.9197 52.928 26.7517 53.012 26.5517 53.052C26.3597 53.084 26.0757 53.1 25.6997 53.1ZM30.2101 55.8C30.2261 55.544 30.2341 55.328 30.2341 55.152L30.2101 53.688C30.2261 53.784 30.4061 53.864 30.7501 53.928C31.0941 53.992 31.4661 54.024 31.8661 54.024C32.0581 54.024 32.1981 54.02 32.2861 54.012C32.5661 53.988 32.8061 53.936 33.0061 53.856C33.3421 53.736 33.5861 53.452 33.7381 53.004C33.8981 52.556 33.9781 52.028 33.9781 51.42C33.9621 50.74 33.9061 50.168 33.8101 49.704C33.7141 49.24 33.5181 48.856 33.2221 48.552C32.9341 48.248 32.5141 48.076 31.9621 48.036C31.9141 48.028 31.8261 48.024 31.6981 48.024C31.4421 48.024 31.1901 48.064 30.9421 48.144C30.6941 48.224 30.4981 48.356 30.3541 48.54C30.3221 48.596 30.2941 48.628 30.2701 48.636C30.2541 48.636 30.2421 48.616 30.2341 48.576C30.2421 48.504 30.2421 48.448 30.2341 48.408C30.2341 48.368 30.2341 48.332 30.2341 48.3C30.2341 48.236 30.2301 48.176 30.2221 48.12C30.2221 48.056 30.2181 48.02 30.2101 48.012C30.1381 48.004 30.0221 48 29.8621 48L29.0821 48.012C29.0741 48.3 29.0701 48.74 29.0701 49.332C29.0701 49.972 29.0741 50.548 29.0821 51.06C29.0901 51.564 29.0981 51.992 29.1061 52.344C29.1381 53.8 29.1541 54.904 29.1541 55.656V56.448C29.3141 56.472 29.4861 56.484 29.6701 56.484C29.7981 56.484 29.9141 56.476 30.0181 56.46C30.1221 56.452 30.1741 56.44 30.1741 56.424V56.292L30.2101 55.8ZM31.2661 53.1C30.9141 53.1 30.6621 53.06 30.5101 52.98C30.3661 52.9 30.2701 52.74 30.2221 52.5C30.1741 52.252 30.1501 51.844 30.1501 51.276C30.1501 50.74 30.1741 50.324 30.2221 50.028C30.2701 49.732 30.3821 49.496 30.5581 49.32C30.7421 49.136 31.0261 49.028 31.4101 48.996C32.0581 48.948 32.4941 49.156 32.7181 49.62C32.9501 50.084 33.0661 50.636 33.0661 51.276C33.0661 51.548 33.0341 51.84 32.9701 52.152C32.8821 52.448 32.7661 52.664 32.6221 52.8C32.4861 52.928 32.3181 53.012 32.1181 53.052C31.9261 53.084 31.6421 53.1 31.2661 53.1ZM34.9365 45.36C34.9285 45.544 34.9365 45.9 34.9605 46.428C34.9765 46.7 34.9845 46.896 34.9845 47.016C35.0725 47.008 35.1485 47.008 35.2125 47.016C35.2765 47.016 35.3325 47.016 35.3805 47.016C35.4445 47.024 35.5405 47.028 35.6685 47.028C35.8765 47.028 36.0205 47.008 36.1005 46.968L36.0645 45.384C35.8085 45.384 35.4325 45.376 34.9365 45.36ZM34.9845 47.952C34.9365 48.48 34.9125 49.02 34.9125 49.572C34.9125 49.876 34.9205 50.308 34.9365 50.868V51.876V52.956C34.9365 53.428 34.9325 53.78 34.9245 54.012C34.9565 54.004 35.0445 54 35.1885 54C35.2365 54 35.3725 54 35.5965 54C35.8205 54 35.9885 53.988 36.1005 53.964C36.0685 53.388 36.0525 52.732 36.0525 51.996C36.0525 51.212 36.0645 50.436 36.0885 49.668C36.1045 48.916 36.1125 48.36 36.1125 48V47.964C35.8245 47.964 35.5605 47.956 35.3205 47.94C35.1525 47.932 35.0405 47.932 34.9845 47.94V47.952ZM38.2849 48.036C38.2849 48.012 38.2449 48 38.1649 48C38.1009 48 38.0369 48.004 37.9729 48.012C37.9089 48.02 37.8529 48.024 37.8049 48.024C37.7249 48.032 37.6209 48.036 37.4929 48.036C37.3649 48.036 37.2529 48.032 37.1569 48.024C37.1409 48.856 37.1329 49.464 37.1329 49.848C37.1329 50.32 37.1409 51.028 37.1569 51.972L37.1689 54.036C37.2409 54.028 37.3409 54.024 37.4689 54.024C37.5329 54.024 37.6369 54.024 37.7809 54.024C37.9329 54.032 38.0849 54.02 38.2369 53.988V53.94C38.2609 53.628 38.2729 53.324 38.2729 53.028C38.2729 52.884 38.2649 52.66 38.2489 52.356C38.2329 51.844 38.2249 51.364 38.2249 50.916C38.2249 50.628 38.2289 50.432 38.2369 50.328C38.2689 49.952 38.4129 49.692 38.6689 49.548C38.9329 49.404 39.3409 49.328 39.8929 49.32C40.2609 49.296 40.4569 49.424 40.4809 49.704C40.5529 49.92 40.5969 50.168 40.6129 50.448C40.6369 50.728 40.6489 50.892 40.6489 50.94C40.6569 51.164 40.6529 51.536 40.6369 52.056L40.6249 52.824V53.34C40.6249 53.66 40.6329 53.884 40.6489 54.012H41.0449C41.3329 54.012 41.5529 54 41.7049 53.976C41.6969 53.824 41.6929 53.572 41.6929 53.22C41.6929 52.948 41.7009 52.508 41.7169 51.9C41.7329 51.26 41.7409 50.788 41.7409 50.484C41.7409 49.284 41.6449 48.6 41.4529 48.432C41.1729 48.2 40.8129 48.076 40.3729 48.06C40.0049 48.06 39.6369 48.124 39.2689 48.252C38.9009 48.372 38.5809 48.512 38.3089 48.672V48.372C38.3089 48.236 38.3009 48.124 38.2849 48.036ZM47.1432 55.56C47.1832 55.464 47.2072 55.352 47.2152 55.224C47.2312 55.104 47.2392 54.976 47.2392 54.84C47.2472 54.704 47.2512 54.596 47.2512 54.516C47.2912 53.596 47.3112 52.516 47.3112 51.276C47.3112 50.028 47.2952 48.94 47.2632 48.012L46.6392 48C46.5352 48 46.3792 48.008 46.1712 48.024C46.1632 48.072 46.1592 48.124 46.1592 48.18C46.1672 48.228 46.1712 48.276 46.1712 48.324C46.1712 48.42 46.1592 48.524 46.1352 48.636C46.0632 48.476 45.9712 48.352 45.8592 48.264C45.7472 48.176 45.5752 48.116 45.3432 48.084C45.1192 48.044 44.7992 48.028 44.3832 48.036C43.7512 48.076 43.2872 48.296 42.9912 48.696C42.7032 49.088 42.5272 49.528 42.4632 50.016C42.4072 50.504 42.3792 51.12 42.3792 51.864C42.4032 52.424 42.5152 52.892 42.7152 53.268C42.9552 53.772 43.4752 54.024 44.2752 54.024H44.7312C45.2192 54.024 45.5512 54.008 45.7272 53.976C45.9112 53.944 46.0712 53.848 46.2072 53.688C46.1992 53.776 46.1912 53.844 46.1832 53.892C46.1832 53.94 46.1832 53.984 46.1832 54.024V54.42V54.864C46.1992 55.048 46.1832 55.184 46.1352 55.272C46.0952 55.368 45.9952 55.432 45.8352 55.464C45.6832 55.504 45.4392 55.524 45.1032 55.524C44.8472 55.524 44.6392 55.52 44.4792 55.512C44.1672 55.464 43.9632 55.36 43.8672 55.2C43.7712 55.04 43.7232 54.856 43.7232 54.648C43.7232 54.544 43.7192 54.484 43.7112 54.468C43.6952 54.452 43.6192 54.444 43.4832 54.444C43.3232 54.444 43.1552 54.448 42.9792 54.456C42.8032 54.472 42.6952 54.488 42.6552 54.504C42.6472 54.56 42.6432 54.64 42.6432 54.744C42.6432 55.216 42.8232 55.608 43.1832 55.92C43.5432 56.232 43.9872 56.408 44.5152 56.448C44.7552 56.464 44.9512 56.472 45.1032 56.472C45.1912 56.472 45.4112 56.464 45.7632 56.448C46.0672 56.424 46.3352 56.356 46.5672 56.244C46.7992 56.132 46.9912 55.904 47.1432 55.56ZM43.3152 51.144C43.3152 50.552 43.3992 50.072 43.5672 49.704C43.7352 49.328 44.0432 49.1 44.4912 49.02C44.6432 48.996 44.7992 48.984 44.9592 48.984C45.2552 48.984 45.4872 49.032 45.6552 49.128C46.0152 49.32 46.1952 49.82 46.1952 50.628C46.2032 50.972 46.2072 51.428 46.2072 51.996C46.1832 52.436 46.0752 52.732 45.8832 52.884C45.6992 53.036 45.3912 53.112 44.9592 53.112C44.7512 53.112 44.5872 53.108 44.4672 53.1C44.0112 53.076 43.6992 52.876 43.5312 52.5C43.3632 52.124 43.2912 51.72 43.3152 51.288V51.144ZM53.0145 49.536L54.3945 49.572C54.4105 49.388 54.4185 49.176 54.4185 48.936C54.4345 48.704 54.4465 48.572 54.4545 48.54C53.5185 48.54 52.8145 48.544 52.3425 48.552C52.3265 48.152 52.3185 47.9 52.3185 47.796C52.3185 47.492 52.3425 47.28 52.3905 47.16C52.4385 47.04 52.5105 46.968 52.6065 46.944C52.7025 46.912 52.8785 46.888 53.1345 46.872C53.8945 46.84 54.3425 46.828 54.4785 46.836C54.5185 46.516 54.5385 46.312 54.5385 46.224C54.5385 46.056 54.5145 45.896 54.4665 45.744H53.9985C53.4945 45.744 53.0225 45.764 52.5825 45.804C52.0465 45.876 51.6825 46.116 51.4905 46.524C51.3065 46.932 51.2145 47.436 51.2145 48.036L51.2265 48.516C51.0745 48.508 50.7025 48.504 50.1105 48.504L50.1465 49.536C50.2025 49.528 50.2905 49.524 50.4105 49.524C50.5465 49.524 50.6505 49.528 50.7225 49.536C50.9865 49.536 51.1625 49.532 51.2505 49.524C51.2505 49.884 51.2465 50.184 51.2385 50.424L51.2265 51.876C51.2265 53.076 51.2425 53.772 51.2745 53.964C51.3545 53.98 51.4585 53.988 51.5865 53.988L51.8745 53.976C52.0345 53.96 52.1745 53.956 52.2945 53.964V49.524L53.0145 49.536ZM55.8454 50.964C55.9414 50.988 56.0894 51 56.2894 51C56.5934 51.016 57.0614 51.024 57.6934 51.024C57.9894 51.024 58.1814 51.02 58.2694 51.012C59.0134 50.98 59.4614 50.94 59.6134 50.892C59.6294 50.668 59.6374 50.496 59.6374 50.376C59.6374 48.92 59.0934 48.1 58.0054 47.916C57.7254 47.852 57.4574 47.82 57.2014 47.82C56.7134 47.82 56.2694 47.916 55.8694 48.108C55.4694 48.3 55.1934 48.572 55.0414 48.924C54.9614 49.132 54.9054 49.344 54.8734 49.56C54.8494 49.776 54.8294 49.988 54.8134 50.196C54.7974 50.396 54.7854 50.528 54.7774 50.592C54.7374 51.472 54.8574 52.256 55.1374 52.944C55.4174 53.624 55.8694 54.016 56.4934 54.12C56.5334 54.136 56.6334 54.152 56.7934 54.168C56.9614 54.184 57.1414 54.192 57.3334 54.192C57.7574 54.192 58.1454 54.144 58.4974 54.048C58.8574 53.96 59.1094 53.808 59.2534 53.592C59.4054 53.344 59.5014 53.084 59.5414 52.812C59.5814 52.54 59.5974 52.176 59.5894 51.72C59.5014 51.728 59.4214 51.732 59.3494 51.732C59.2854 51.724 59.2294 51.72 59.1814 51.72C59.1174 51.712 59.0214 51.708 58.8934 51.708C58.7494 51.708 58.5934 51.72 58.4254 51.744C58.4414 51.872 58.4494 51.96 58.4494 52.008C58.4494 52.32 58.3534 52.568 58.1614 52.752C57.9774 52.928 57.6894 53.016 57.2974 53.016C56.3214 53.016 55.8334 52.52 55.8334 51.528L55.8454 51.18V50.964ZM58.7614 50.196C58.7614 50.228 58.7534 50.252 58.7374 50.268C58.7294 50.276 58.7054 50.284 58.6654 50.292C58.5694 50.3 58.1374 50.304 57.3694 50.304C57.1614 50.312 56.9094 50.316 56.6134 50.316C56.3094 50.316 56.1094 50.3 56.0134 50.268C55.9254 50.236 55.8814 50.172 55.8814 50.076C55.8814 50.044 55.8894 49.98 55.9054 49.884C55.9614 49.484 56.0974 49.176 56.3134 48.96C56.5374 48.744 56.9094 48.636 57.4294 48.636C57.5654 48.636 57.6774 48.644 57.7654 48.66C57.8534 48.676 57.9574 48.712 58.0774 48.768C58.2934 48.904 58.4574 49.092 58.5694 49.332C58.6894 49.572 58.7534 49.816 58.7614 50.064V50.196ZM61.1774 50.964C61.2734 50.988 61.4214 51 61.6214 51C61.9254 51.016 62.3934 51.024 63.0254 51.024C63.3214 51.024 63.5134 51.02 63.6014 51.012C64.3454 50.98 64.7934 50.94 64.9454 50.892C64.9614 50.668 64.9694 50.496 64.9694 50.376C64.9694 48.92 64.4254 48.1 63.3374 47.916C63.0574 47.852 62.7894 47.82 62.5334 47.82C62.0454 47.82 61.6014 47.916 61.2014 48.108C60.8014 48.3 60.5254 48.572 60.3734 48.924C60.2934 49.132 60.2374 49.344 60.2054 49.56C60.1814 49.776 60.1614 49.988 60.1454 50.196C60.1294 50.396 60.1174 50.528 60.1094 50.592C60.0694 51.472 60.1894 52.256 60.4694 52.944C60.7494 53.624 61.2014 54.016 61.8254 54.12C61.8654 54.136 61.9654 54.152 62.1254 54.168C62.2934 54.184 62.4734 54.192 62.6654 54.192C63.0894 54.192 63.4774 54.144 63.8294 54.048C64.1894 53.96 64.4414 53.808 64.5854 53.592C64.7374 53.344 64.8334 53.084 64.8734 52.812C64.9134 52.54 64.9294 52.176 64.9214 51.72C64.8334 51.728 64.7534 51.732 64.6814 51.732C64.6174 51.724 64.5614 51.72 64.5134 51.72C64.4494 51.712 64.3534 51.708 64.2254 51.708C64.0814 51.708 63.9254 51.72 63.7574 51.744C63.7734 51.872 63.7814 51.96 63.7814 52.008C63.7814 52.32 63.6854 52.568 63.4934 52.752C63.3094 52.928 63.0214 53.016 62.6294 53.016C61.6534 53.016 61.1654 52.52 61.1654 51.528L61.1774 51.18V50.964ZM64.0934 50.196C64.0934 50.228 64.0854 50.252 64.0694 50.268C64.0614 50.276 64.0374 50.284 63.9974 50.292C63.9014 50.3 63.4694 50.304 62.7014 50.304C62.4934 50.312 62.2414 50.316 61.9454 50.316C61.6414 50.316 61.4414 50.3 61.3454 50.268C61.2574 50.236 61.2134 50.172 61.2134 50.076C61.2134 50.044 61.2214 49.98 61.2374 49.884C61.2934 49.484 61.4294 49.176 61.6454 48.96C61.8694 48.744 62.2414 48.636 62.7614 48.636C62.8974 48.636 63.0094 48.644 63.0974 48.66C63.1854 48.676 63.2894 48.712 63.4094 48.768C63.6254 48.904 63.7894 49.092 63.9014 49.332C64.0214 49.572 64.0854 49.816 64.0934 50.064V50.196ZM70.3975 49.56C70.3975 49.2 70.3095 48.876 70.1335 48.588C69.9575 48.292 69.7295 48.084 69.4495 47.964C69.1535 47.868 68.8335 47.808 68.4895 47.784C68.2495 47.768 68.0695 47.76 67.9495 47.76C67.4375 47.76 67.0175 47.804 66.6895 47.892C66.3055 47.988 66.0015 48.192 65.7775 48.504C65.5615 48.808 65.4535 49.148 65.4535 49.524C65.4535 49.868 65.5615 50.188 65.7775 50.484C66.0015 50.772 66.3215 50.984 66.7375 51.12C66.8575 51.176 66.9935 51.216 67.1455 51.24C67.2975 51.264 67.4975 51.288 67.7455 51.312C68.0895 51.352 68.3615 51.396 68.5615 51.444C68.7615 51.484 68.9255 51.568 69.0535 51.696C69.1895 51.824 69.2535 52.004 69.2455 52.236C69.2535 52.588 69.0535 52.856 68.6455 53.04C68.5095 53.104 68.3975 53.148 68.3095 53.172C68.2295 53.196 68.1255 53.208 67.9975 53.208C67.9495 53.208 67.7975 53.2 67.5415 53.184C67.2135 53.16 66.9815 53.064 66.8455 52.896C66.7095 52.728 66.6135 52.564 66.5575 52.404C66.5095 52.236 66.4775 52.144 66.4615 52.128C66.4375 52.104 66.2695 52.092 65.9575 52.092C65.6775 52.092 65.4655 52.1 65.3215 52.116V52.176C65.3215 52.6 65.4335 52.968 65.6575 53.28C65.8815 53.592 66.1975 53.828 66.6055 53.988C67.0135 54.14 67.4855 54.208 68.0215 54.192C68.5095 54.2 68.9455 54.116 69.3295 53.94C69.7135 53.764 69.9935 53.488 70.1695 53.112C70.2895 52.76 70.3495 52.46 70.3495 52.212C70.3495 52.012 70.3135 51.828 70.2415 51.66C70.1775 51.484 70.0735 51.308 69.9295 51.132C69.7855 50.972 69.5855 50.848 69.3295 50.76C69.0815 50.664 68.7935 50.612 68.4655 50.604C68.2415 50.596 67.9735 50.552 67.6615 50.472C67.3495 50.392 67.1535 50.324 67.0735 50.268C66.9295 50.196 66.8135 50.068 66.7255 49.884C66.6935 49.844 66.6775 49.768 66.6775 49.656C66.6775 49.512 66.7055 49.364 66.7615 49.212C66.8175 49.06 66.8975 48.944 67.0015 48.864C67.0895 48.808 67.2215 48.764 67.3975 48.732C67.5815 48.7 67.7855 48.684 68.0095 48.684C68.2175 48.684 68.3735 48.692 68.4775 48.708C68.9415 48.764 69.1735 48.928 69.1735 49.2C69.1735 49.464 69.1735 49.6 69.1735 49.608C69.2135 49.6 69.2655 49.6 69.3295 49.608C69.3935 49.608 69.4575 49.608 69.5215 49.608C69.6175 49.616 69.7695 49.62 69.9775 49.62C70.2575 49.62 70.3975 49.6 70.3975 49.56Z" fill="#455C1E"/>
<defs>
<filter id="filter0_d_1_320" x="0" y="0" width="82" height="83" filterUnits="userSpaceOnUse" color-interpolation-filters="sRGB">
<feFlood flood-opacity="0" result="BackgroundImageFix"/>
<feColorMatrix in="SourceAlpha" type="matrix" values="0 0 0 0 0 0 0 0 0 0 0 0 0 0 0 0 0 0 127 0" result="hardAlpha"/>
<feOffset dx="2" dy="3"/>
<feComposite in2="hardAlpha" operator="out"/>
<feColorMatrix type="matrix" values="0 0 0 0 0.580392 0 0 0 0 0.623529 0 0 0 0 0.431373 0 0 0 1 0"/>
<feBlend mode="normal" in2="BackgroundImageFix" result="effect1_dropShadow_1_320"/>
<feBlend mode="normal" in="SourceGraphic" in2="effect1_dropShadow_1_320" result="shape"/>
</filter>
</defs>
</svg>
